_________________________  Visit us at _________________________
  
http://tinym.eu  ____________________________  http://p2pdl.com


Lay the Favorite 2012 DVDRip 350MB x264 AAC - ViZNU [P2PDL]

					
Genre: Comedy
Plot: Beth, a Las Vegas cocktail waitress, falls in with Dink, a sports gambler who swoons for her as
she proves to be something of a gambling prodigy, earning the initial ire of Dink's wife, Tulip.     
Director: Stephen Frears
Stars: Rebecca Hall, Bruce Willis and Vince Vaughn.
Rated: R for language throughout, some sexual content, brief drug use, and nudity. 
http://cinemahouse.in/movie/231/Lay+the+Favorite

General
Format                         : MPEG-4
Format profile                 : Base Media
Codec ID                       : isom
File size                      : 351 MiB
Duration                       : 1h 33mn
Overall bit rate mode          : Variable
Overall bit rate               : 524 Kbps

Video
ID                             : 1
Format                         : AVC
Format/Info                    : Advanced Video Codec
Codec ID                       : avc1
Codec ID/Info                  : Advanced Video Coding
Duration                       : 1h 33mn
Bit rate                       : 481 Kbps
Maximum bit rate               : 2 211 Kbps
Width                          : 720 pixels
Height                         : 400 pixels
Display aspect ratio           : 16:9
Frame rate mode                : Constant
Frame rate                     : 29.970 fps
Stream size                    : 322 MiB (92%)
Writing library                : x264 core 125 r2208 d9d2288

Aud
ID                             : 2
Format                         : AAC
Format/Info                    : Advanced Audio Codec
Format profile                 : HE-AAC / LC
Codec ID                       : 40
Duration                       : 1h 33mn
Bit rate mode                  : Variable
Bit rate                       : 40.0 Kbps
Maximum bit rate               : 48.7 Kbps
Channel(s)                     : 2 channels
Channel positions              : Front: L R
Sampling rate                  : 44.1 KHz / 22.05 KHz
Compression mode               : Lossy
Stream size                    : 26.8 MiB (8%)
Language                       : English

Screens:
 
http://www.shotpix.com/images/21235310099683891596.png 
http://www.shotpix.com/images/37664986938015768474.png 
http://www.shotpix.com/images/69073425613476774113.png 
http://www.shotpix.com/images/44652278527515626766.png 
http://www.shotpix.com/images/39597823745172935735.png 
http://www.shotpix.com/images/41208456510739083867.png

Sample:


----------------------------------------------------------------------------------------------------


Recommend to you to use latest version of VLC player. Install K-Lite Codec Pack or shark007 codecs
in case of any kind of problem in playback (For non-VLC Media Player users). Alternatively, install
Core AVC codecs, the fastest decoder that there is coupled with Community Center Codec Pack and play
on Windows Media Player Classic. Check sample to be sure.
Enjoy!


Greets to: Vitamin_X, a2zRG, srkfan, staff members at ExtraTorrent, TPB,KAT, 1337x, PublicHD,
Ahashare, BTScene, TorrentMafia, P2PDL, and all others.


Encoder Notes: Looking For Early Access To Anything You Can Provide DVDScr, R5, DVDR, BluRay, Direct
Audio, Early Music Releases, Seedboxes, Dedicated Servers anything u can provide, Advance / Promo CDs/
DVDs. If You Got anything to offer contact me at "prg@hush.com".


Facebook Fan Page: www . facebook . com / p2pdl